<svg width="20" height="20" viewBox="0 0 20 20" fill="none" xmlns="http://www.w3.org/2000/svg">
<path fill-rule="evenodd" clip-rule="evenodd" d="M17.5998 7.16002C17.5722 5.285 16.5106 3.43849 14.8774 2.67743C14.0474 2.29065 13.0848 2.19432 12.081 2.51296C11.2449 2.77836 10.4075 3.32229 9.59999 4.17749C8.79252 3.32229 7.95513 2.77836 7.11902 2.51296C6.11519 2.19432 5.1526 2.29065 4.32258 2.67743C2.68936 3.43849 1.62784 5.285 1.60012 7.16002L1.60006 7.16878C1.60006 9.90355 3.22647 12.3264 4.94893 14.0269C5.81841 14.8852 6.73621 15.5839 7.53681 16.0717C7.93687 16.3153 8.31563 16.5114 8.65121 16.6483C8.9718 16.7791 9.30628 16.8785 9.59999 16.8785C9.8937 16.8785 10.2282 16.7791 10.5488 16.6483C10.8844 16.5114 11.2631 16.3153 11.6632 16.0717C12.4638 15.5839 13.3815 14.8852 14.2511 14.0269C15.9735 12.3264 17.5999 9.90355 17.5999 7.16878L17.5998 7.16002Z" fill="white" fill-opacity="0.3"/>
</svg>
